<svg version="1.1" id="Layer_1" xmlns="http://www.w3.org/2000/svg" xmlns:xlink="http://www.w3.org/1999/xlink" x="0px" y="0px"
	 width="100%" viewBox="0 0 1024 544" enable-background="new 0 0 1024 544" xml:space="preserve">
<path fill="#000000" opacity="1.000000" stroke="none" 
	d="
M228.597305,190.521469 
	C265.094391,168.577026 311.473511,189.868774 317.951111,231.488159 
	C319.543884,241.721878 318.875916,252.144180 314.795685,261.955536 
	C313.113678,266.000122 313.761353,268.378418 318.292999,269.659943 
	C322.766785,270.925110 326.986633,273.116943 331.478943,274.280182 
	C337.008240,275.711884 338.839020,279.206726 337.767212,284.288696 
	C336.741547,289.151764 338.959320,290.918182 343.157990,292.529938 
	C359.148651,298.668182 356.143616,294.541504 356.324005,311.063782 
	C356.471283,324.556610 356.522003,338.054657 356.298553,351.545135 
	C356.220459,356.259552 357.660126,358.320374 362.556061,357.762787 
	C364.370697,357.556122 366.676910,357.001068 367.879242,359.349518 
	C369.440125,362.398407 367.684448,365.347046 364.065247,365.357269 
	C341.741272,365.420197 319.416901,365.350403 297.093048,365.434387 
	C292.922791,365.450073 292.189819,362.898163 291.879639,359.642273 
	C291.238220,352.910522 289.032593,346.666443 285.763306,340.786957 
	C284.638092,338.763336 283.426147,336.766632 281.442505,335.587189 
	C279.205688,335.879913 278.778595,337.674957 277.994781,339.066071 
	C273.744202,346.609955 269.605133,354.217499 265.285553,361.721313 
	C261.800507,367.775391 257.682037,367.729889 254.227036,361.669006 
	C249.290787,353.009705 244.432465,344.305939 239.481140,335.515137 
	C236.333893,336.273773 235.226578,338.617798 233.974380,340.651947 
	C230.240768,346.717041 228.178101,353.417847 227.646103,360.456421 
	C227.328049,364.664398 225.197556,365.872986 221.519012,365.860687 
	C213.364975,365.833466 205.197479,366.147491 197.059662,365.782837 
	C183.577896,365.178711 170.093338,366.483185 156.618851,365.458282 
	C153.965408,365.256439 151.685333,365.356415 151.651413,361.615967 
	C151.617935,357.921814 153.799881,357.353302 156.498627,357.747986 
	C162.221024,358.584808 163.062866,355.626831 162.996384,350.791809 
	C162.778793,334.967865 163.016022,319.137909 162.833389,303.313080 
	C162.785538,299.167816 164.160965,296.640411 168.184082,295.575378 
	C169.303467,295.279053 170.324982,294.580963 171.449768,294.342194 
	C178.879349,292.765106 183.491898,289.213837 181.803650,280.655182 
	C181.218292,277.687744 183.242950,276.077271 185.820526,275.150635 
	C190.834183,273.348145 195.785538,271.327698 200.891846,269.841187 
	C205.224380,268.579987 206.336655,266.574738 204.792358,262.189941 
	C200.919418,251.193344 199.434082,239.946991 202.160690,228.336899 
	C205.924423,212.310410 214.751923,199.904282 228.597305,190.521469 
M294.495453,228.659286 
	C299.045593,240.770660 296.986450,252.212173 290.899536,263.198517 
	C279.655853,283.492279 262.927856,298.613373 244.591125,312.224670 
	C235.506424,318.968201 225.809296,324.991302 218.287720,333.632416 
	C212.447586,340.341827 207.893799,347.720245 206.975052,356.860504 
	C217.232773,359.224670 218.376770,358.602783 220.831970,349.713715 
	C220.876297,349.553192 220.917984,349.391937 220.963806,349.231812 
	C231.297699,313.124176 273.315369,299.616638 302.599304,323.017944 
	C312.644409,331.045135 318.493256,341.671265 321.368530,354.051971 
	C321.933990,356.486755 323.077423,357.846710 325.819550,357.689301 
	C328.650726,357.526794 328.962067,355.695679 328.962250,353.562012 
	C328.964233,331.063812 328.942413,308.565582 328.956299,286.067383 
	C328.957672,283.845337 328.291473,282.205017 326.038879,281.404999 
	C321.802368,279.900421 317.583344,278.345581 313.371643,276.772552 
	C310.172699,275.577759 309.310089,277.792877 308.365417,280.049316 
	C307.273804,282.656677 308.720032,283.673737 310.868439,284.404968 
	C312.600769,284.994598 314.247437,285.901733 316.014801,286.309387 
	C320.433075,287.328430 321.508209,290.095947 321.429932,294.369507 
	C321.195007,307.197968 321.368805,320.033508 321.302490,332.865875 
	C321.294586,334.388733 321.981445,336.190826 319.861847,337.796936 
	C316.910492,332.460175 312.228394,328.418152 312.726410,321.379883 
	C313.277771,313.587524 312.695709,305.721252 312.841644,297.891510 
	C312.925201,293.409149 309.493378,293.209137 306.639862,292.043732 
	C303.438690,290.736328 302.533417,292.967865 301.484406,295.111298 
	C299.653931,298.851471 297.822723,302.591217 295.987030,306.328827 
	C293.063080,312.282257 291.835602,312.553314 285.782959,308.571899 
	C285.456696,306.757263 286.676331,305.458496 287.372284,303.986145 
	C290.647034,297.057770 294.055420,290.189453 297.183441,283.195618 
	C302.490540,271.329468 307.932159,259.403503 309.642883,246.407333 
	C313.702423,215.566788 286.521515,188.181824 256.115631,190.027740 
	C228.810287,191.685410 205.138016,220.086792 209.898880,246.953339 
	C212.457260,261.390839 218.355530,274.614136 224.496704,287.739258 
	C227.715500,294.618561 230.488861,301.767090 235.302750,308.525452 
	C252.746826,295.564636 269.210419,282.203308 280.542297,263.595490 
	C285.460907,255.518753 289.154694,247.101395 288.581604,237.285324 
	C288.395172,234.091049 290.195953,231.214005 291.402344,228.305679 
	C292.047089,226.751266 293.082031,226.169434 294.495453,228.659286 
M205.218796,336.843872 
	C210.034546,328.851868 216.817795,322.687408 224.123260,317.134094 
	C227.146805,314.835724 227.511734,312.916962 225.666794,309.739380 
	C223.079865,305.283905 221.015335,300.528168 218.533142,296.007507 
	C217.368164,293.885803 216.883392,290.482422 212.935043,291.988800 
	C209.491791,293.302429 206.040497,294.151520 206.262512,299.226440 
	C206.604263,307.038086 205.974945,314.898773 206.453415,322.695953 
	C206.861115,329.339355 202.419937,333.069183 199.561768,338.039825 
	C197.270813,336.207611 197.950455,334.236633 197.937439,332.515930 
	C197.861938,322.524872 198.336777,312.505859 197.738541,302.549561 
	C197.193375,293.476898 197.859833,286.004364 208.949951,284.264587 
	C211.480087,283.867676 212.179932,281.780151 211.125427,279.204712 
	C210.126465,276.764862 208.691147,275.767365 206.099991,276.752869 
	C202.212265,278.231415 198.339401,279.763977 194.391159,281.063812 
	C191.147034,282.131866 190.242599,284.239624 190.258347,287.503510 
	C190.362747,309.151672 190.296936,330.800598 190.339401,352.449158 
	C190.343658,354.620819 189.548950,357.317261 193.240891,357.675262 
	C196.375626,357.979218 197.760590,356.488647 198.529785,353.696594 
	C200.076965,348.080353 201.678864,342.467529 205.218796,336.843872 
M299.218689,350.520203 
	C301.199615,358.129028 301.770081,358.454681 309.288849,357.707977 
	C312.262756,357.412628 312.901855,356.155090 312.194122,353.403900 
	C306.218292,330.173035 281.131378,311.956726 254.692780,322.886566 
	C244.861435,326.950897 244.755127,327.242615 249.949997,336.266663 
	C252.441833,340.595215 254.829086,344.983948 257.313507,349.316864 
	C257.938599,350.407043 258.263733,351.887024 260.621490,352.007233 
	C263.646912,346.643646 266.817444,341.034729 269.976440,335.419342 
	C273.705627,328.790375 273.698639,328.792175 267.246735,324.756683 
	C267.107269,324.669434 267.229218,324.164276 267.233826,323.854065 
	C275.242706,321.494995 284.813507,325.042236 290.480927,332.350739 
	C294.531708,337.574432 296.962952,343.558746 299.218689,350.520203 
M171.992996,305.877502 
	C171.802536,321.330994 171.682556,336.785858 171.372452,352.236969 
	C171.294113,356.140778 172.304214,357.877960 176.677673,357.833649 
	C181.199448,357.787842 181.829269,355.678314 181.799881,351.951538 
	C181.677765,336.475647 181.754395,320.998230 181.707764,305.521545 
	C181.702957,303.928558 182.167770,302.163361 180.490204,300.570435 
	C177.391647,301.313873 173.709488,301.075165 171.992996,305.877502 
M347.524902,355.719635 
	C347.608093,340.746979 347.712189,325.774414 347.766418,310.801666 
	C347.796844,302.401367 347.090027,301.655853 337.698822,300.163055 
	C337.698822,316.854645 337.695038,333.454041 337.707001,350.053436 
	C337.707825,351.215637 337.769043,352.384155 337.898804,353.538849 
	C338.419464,358.171997 341.189972,359.045197 347.524902,355.719635 
z"/>
<path fill="#000000" opacity="1.000000" stroke="none" 
	d="
M820.631287,270.899597 
	C826.184570,270.252136 831.058105,270.765442 835.052612,274.483124 
	C837.020813,276.314911 838.345093,274.791016 839.811646,273.754486 
	C844.484680,270.451630 849.742798,269.955902 855.096741,271.105072 
	C862.635132,272.723145 866.721313,278.170074 867.129761,287.366821 
	C867.447083,294.511047 867.096497,301.682404 867.243958,308.837585 
	C867.338806,313.444824 864.331299,313.177734 861.206116,313.260071 
	C857.763611,313.350739 855.359131,312.774536 855.577637,308.433319 
	C855.828369,303.451385 855.651550,298.447693 855.648926,293.453430 
	C855.648254,292.122192 855.713562,290.778564 855.562683,289.461914 
	C854.935120,283.987030 852.260498,281.154449 847.966431,281.306946 
	C843.986938,281.448273 840.595032,284.921875 840.363525,289.726074 
	C840.083374,295.540436 839.995789,301.385468 840.258484,307.197601 
	C840.460876,311.675568 839.027649,313.345581 834.332397,313.382782 
	C829.424133,313.421661 828.410156,311.344330 828.616150,307.061646 
	C828.879883,301.580811 828.743103,296.076202 828.650208,290.584015 
	C828.552124,284.785675 826.329834,281.595337 822.390442,281.289795 
	C817.761780,280.930786 813.913940,284.395111 813.517700,290.124969 
	C813.105225,296.090424 813.140503,302.114349 813.424744,308.091522 
	C813.638550,312.588806 811.431885,313.325012 807.663574,313.294189 
	C804.015442,313.264343 801.591309,312.772400 801.680847,308.211945 
	C801.876709,298.227509 801.717041,288.236176 801.713562,278.247681 
	C801.711182,271.466431 805.232422,268.401764 811.165710,271.515503 
	C815.033691,273.545410 817.269409,271.798706 820.631287,270.899597 
z"/>
<path fill="#000000" opacity="1.000000" stroke="none" 
	d="
M666.091187,307.101318 
	C646.999695,321.614166 621.125549,312.338379 617.190613,289.895264 
	C615.063232,277.761963 621.236267,265.432709 632.243103,259.831268 
	C643.468506,254.118591 659.019531,256.191376 667.250977,264.341309 
	C669.433044,266.501801 670.226868,268.493561 667.442261,270.465942 
	C665.058594,272.154358 663.869507,277.312958 659.225830,273.054321 
	C653.764038,268.045471 647.432373,265.495422 639.999084,268.864380 
	C633.274780,271.912079 629.843079,277.291901 629.361572,284.521423 
	C628.887939,291.632751 632.793030,298.446716 639.013184,301.206696 
	C645.714600,304.180206 652.041382,303.182404 657.703003,298.537048 
	C662.628418,294.495667 665.815613,294.967377 669.298218,300.535950 
	C671.487244,304.036102 667.932190,305.027740 666.091187,307.101318 
z"/>
<path fill="#000000" opacity="1.000000" stroke="none" 
	d="
M736.461914,270.837952 
	C741.080566,270.528137 745.249695,270.433777 749.075623,272.551575 
	C750.754700,273.481049 751.821960,272.884857 753.450684,271.925293 
	C759.275696,268.493347 764.167969,271.464752 764.176636,278.133209 
	C764.188843,287.459991 764.179382,296.786804 764.162903,306.113617 
	C764.150879,312.904510 759.587524,315.795471 753.563538,312.450073 
	C751.874023,311.511841 750.911987,311.339386 749.190430,311.968262 
	C736.120300,316.742859 724.440735,311.847717 720.676575,300.150635 
	C716.340393,286.675964 722.574463,274.794250 736.461914,270.837952 
M747.512390,282.818115 
	C745.530151,281.328766 743.243164,281.124054 740.882019,281.261932 
	C736.171875,281.536987 732.311951,285.122009 731.442139,290.014618 
	C730.509277,295.262451 733.377808,300.788422 738.029785,302.705048 
	C742.289307,304.459961 747.573547,302.751068 750.232361,298.758850 
	C753.157043,294.367462 752.293396,288.042969 747.512390,282.818115 
z"/>
<path fill="#000000" opacity="1.000000" stroke="none" 
	d="
M400.025604,277.044250 
	C402.385193,282.538147 403.879578,288.002289 406.843109,292.988159 
	C409.223358,291.532806 409.639160,289.302002 410.426880,287.400238 
	C413.545898,279.870178 416.552368,272.293121 419.561005,264.717743 
	C422.465210,257.405212 422.444153,257.386230 430.344879,257.637848 
	C431.648499,257.679321 433.029205,257.417145 434.200989,258.337891 
	C434.953278,260.121704 433.839813,261.553955 433.226227,263.038879 
	C426.935638,278.263184 420.530762,293.440979 414.356323,308.712036 
	C413.060822,311.916046 411.455322,313.500000 407.792267,313.373383 
	C404.224304,313.250061 401.641968,312.924744 400.048401,308.910522 
	C393.787048,293.138336 387.135529,277.521149 380.646606,261.839020 
	C380.211273,260.786926 379.922729,259.674072 379.568695,258.597931 
	C388.219177,255.402695 392.342804,257.153259 395.335571,265.066620 
	C396.806641,268.956268 398.362976,272.813721 400.025604,277.044250 
z"/>
<path fill="#000000" opacity="1.000000" stroke="none" 
	d="
M686.243896,305.895630 
	C686.148376,312.926971 683.625610,314.757629 677.244019,313.151154 
	C675.114075,312.614960 674.734070,311.214813 674.732788,309.458160 
	C674.720215,292.487518 674.733948,275.516907 674.724548,258.546265 
	C674.722473,254.698563 677.512268,254.978256 679.990417,255.062042 
	C682.666321,255.152512 686.115845,254.321976 686.185181,258.762115 
	C686.260315,263.571259 686.202271,268.382477 686.202271,273.744019 
	C690.635498,272.461456 694.321167,270.332184 698.771484,270.587616 
	C707.654114,271.097443 713.886536,276.652313 714.222900,285.619995 
	C714.515808,293.429565 714.217896,301.259491 714.368774,309.076782 
	C714.462097,313.908997 711.107849,313.115723 708.190002,313.256653 
	C705.105164,313.405640 702.519897,313.216644 702.650696,308.969574 
	C702.824890,303.318207 702.729492,297.656219 702.654419,292.000061 
	C702.557373,284.681213 700.071167,281.231476 695.063904,281.272980 
	C689.789124,281.316711 686.377258,285.593292 686.265564,292.432495 
	C686.194946,296.757416 686.246765,301.084320 686.243896,305.895630 
z"/>
<path fill="#000000" opacity="1.000000" stroke="none" 
	d="
M435.562683,306.342529 
	C426.250397,292.074005 431.519012,275.437073 446.315277,271.354950 
	C460.633545,267.404694 472.507172,275.695831 473.801910,290.381073 
	C474.167419,294.527008 473.177856,296.611816 468.500549,296.382996 
	C462.364807,296.082855 456.202759,296.290466 450.052429,296.334320 
	C448.096191,296.348236 446.033875,296.002930 444.341553,297.429291 
	C446.258759,305.082611 453.748322,305.943054 466.423370,300.002167 
	C473.095001,305.747681 472.672943,309.292419 464.395721,311.989044 
	C454.050385,315.359467 444.060211,315.173859 435.562683,306.342529 
M457.602997,281.720886 
	C450.211792,278.845490 445.602631,280.655487 444.110962,287.224304 
	C448.046631,288.131958 452.031769,287.576385 455.973480,287.647583 
	C457.548279,287.676025 459.652832,288.240784 460.376068,286.269989 
	C461.038666,284.464417 459.545898,283.218231 457.602997,281.720886 
z"/>
<path fill="#000000" opacity="1.000000" stroke="none" 
	d="
M602.967285,312.385193 
	C596.687134,314.125793 590.715942,314.372406 584.840210,312.752960 
	C575.652222,310.220581 569.148132,300.301300 570.193970,290.877869 
	C571.474792,279.336670 578.960388,271.494537 589.437378,270.717926 
	C603.368164,269.685364 613.114990,277.991241 613.313232,290.776520 
	C613.375488,294.789490 612.161194,296.532806 607.931152,296.360168 
	C601.780518,296.109131 595.611450,296.295685 589.450378,296.316956 
	C587.477905,296.323761 585.468018,296.166565 583.420898,297.195801 
	C583.819885,301.281586 586.547485,302.989380 589.943542,303.595947 
	C594.455994,304.401947 599.038696,304.244659 602.867004,301.333252 
	C606.068909,298.898285 607.450867,300.626495 609.045410,303.201630 
	C610.778931,306.001190 611.437500,308.394897 607.871887,310.175568 
	C606.387207,310.917084 604.863525,311.580719 602.967285,312.385193 
M583.584106,286.507233 
	C588.975342,289.020203 594.417969,287.194244 600.323730,287.365692 
	C599.604980,282.752380 597.084106,280.845276 593.558777,280.452789 
	C589.140747,279.960876 585.287354,281.094269 583.584106,286.507233 
z"/>
<path fill="#000000" opacity="1.000000" stroke="none" 
	d="
M507.631348,303.958374 
	C507.628021,299.138885 507.792664,294.804108 507.575714,290.488525 
	C507.259094,284.191467 504.373474,281.009460 499.500122,281.141602 
	C494.629517,281.273682 491.435028,284.680969 491.215149,290.500641 
	C490.989136,296.482849 490.922272,302.485138 491.140961,308.465668 
	C491.314728,313.217499 488.501526,313.273529 485.025757,313.338531 
	C481.396881,313.406311 479.482208,312.521698 479.564880,308.356140 
	C479.769592,298.043762 479.565796,287.723846 479.670563,277.408417 
	C479.690857,275.413910 478.577881,272.635468 481.222626,271.649078 
	C484.019135,270.606049 487.548248,270.052948 489.706055,272.364380 
	C491.501404,274.287537 492.516113,273.198883 493.886627,272.643555 
	C508.551270,266.701752 519.256714,273.845062 519.294373,289.629364 
	C519.308655,295.619690 519.008118,301.628296 519.385498,307.594757 
	C519.700623,312.576965 517.313416,313.276337 513.119690,313.375519 
	C508.559448,313.483398 507.109650,311.626068 507.608154,307.444885 
	C507.725525,306.460327 507.627594,305.450104 507.631348,303.958374 
z"/>
<path fill="#000000" opacity="1.000000" stroke="none" 
	d="
M551.851379,299.615692 
	C554.532776,291.635437 553.480652,283.753021 553.492310,275.974670 
	C553.497803,272.319977 554.564636,270.785248 558.313965,271.000397 
	C561.729370,271.196411 565.214600,270.729797 565.024231,275.902039 
	C564.767456,282.879181 564.909607,289.857941 564.578979,296.847992 
	C563.974548,309.627808 555.446533,314.045105 544.442444,313.890045 
	C532.273560,313.718597 525.848694,306.874268 525.720154,294.676086 
	C525.653503,288.352264 525.857239,282.021606 525.633301,275.704895 
	C525.491882,271.716949 527.519897,270.856659 530.867004,271.056793 
	C533.979919,271.242889 537.447571,270.540680 537.338562,275.588837 
	C537.198486,282.073853 537.210693,288.575409 537.527527,295.051758 
	C537.703979,298.659027 539.095032,301.986755 543.034668,303.191711 
	C546.656067,304.299347 549.543640,303.039703 551.851379,299.615692 
z"/>
<path fill="#000000" opacity="1.000000" stroke="none" 
	d="
M771.072876,298.983154 
	C771.083008,291.832397 770.935242,285.172363 771.200317,278.528870 
	C771.296692,276.113525 769.894958,272.501617 773.223816,271.546875 
	C776.741760,270.537933 780.788208,270.034149 783.417175,274.152313 
	C787.633789,271.183838 792.565369,268.846924 796.945496,271.528595 
	C800.158020,273.495453 797.813965,277.875793 797.076660,281.138947 
	C785.522705,282.499329 783.290405,285.110138 783.224976,297.177887 
	C783.206055,300.671051 782.986816,304.180573 783.248108,307.653381 
	C783.588806,312.181030 781.477173,313.283264 777.326721,313.323547 
	C772.983093,313.365723 770.647339,312.234894 771.047852,307.461487 
	C771.269531,304.818878 771.081604,302.141907 771.072876,298.983154 
z"/>
<path fill="#000000" opacity="1.000000" stroke="none" 
	d="
M231.955200,247.049347 
	C234.025391,256.849060 239.125000,264.627502 244.885818,272.024323 
	C247.954880,275.964966 251.223953,279.754486 254.504913,283.523254 
	C255.960846,285.195648 256.401947,286.649933 254.396210,288.107605 
	C252.608383,289.406921 250.924255,291.845947 248.476669,289.192963 
	C237.122971,276.886505 225.744736,264.397003 223.279175,246.994125 
	C221.245621,232.640442 225.860397,220.234177 237.565414,211.201370 
	C248.658463,202.640839 260.935150,201.449295 273.888824,206.599731 
	C275.111481,207.085846 276.425568,207.456116 277.300903,209.135803 
	C274.400726,212.235153 271.061981,214.222672 266.537231,213.107300 
	C244.373169,207.643829 228.218643,228.154312 231.955200,247.049347 
z"/>
<path fill="#000000" opacity="1.000000" stroke="none" 
	d="
M267.804871,236.266663 
	C271.865692,239.451614 276.662231,239.777115 282.385315,241.688553 
	C276.127686,244.068329 270.238586,244.451508 266.308289,248.803909 
	C262.412903,253.117706 261.832672,258.859772 259.904846,264.147644 
	C257.583038,258.827637 257.162323,253.038849 253.136551,248.742859 
	C249.225586,244.569366 243.585480,244.044312 238.267288,241.564499 
	C250.649704,239.971466 257.588654,233.306290 259.468262,220.944580 
	C261.975220,226.306946 262.796844,232.263474 267.804871,236.266663 
z"/>
<path fill="#000000" opacity="1.000000" stroke="none" 
	d="
M281.748230,211.689972 
	C283.056183,209.015350 284.145111,206.628342 285.807312,202.984726 
	C287.904083,210.218872 291.175293,215.562744 299.157776,216.989792 
	C296.081879,219.837784 292.414001,219.955612 290.242249,222.481918 
	C288.039886,225.043808 287.664886,228.524109 285.181030,232.201675 
	C283.583923,224.497086 279.525024,219.883148 272.007050,218.015121 
	C275.219147,215.049835 279.523621,215.237625 281.748230,211.689972 
z"/>
</svg>