<svg version="1.1" id="Layer_1" xmlns="http://www.w3.org/2000/svg" xmlns:xlink="http://www.w3.org/1999/xlink" x="0px" y="0px"
	 width="100%" viewBox="0 0 1024 544" enable-background="new 0 0 1024 544" xml:space="preserve">
<path fill="#000000" opacity="1.000000" stroke="none" 
	d="
M542.616577,296.433533 
	C540.592957,292.781342 538.863037,289.367676 536.031799,286.889923 
	C533.485413,287.362976 533.140442,289.419586 532.298889,290.910339 
	C527.878418,298.740692 523.583984,306.642151 519.185303,314.484985 
	C517.735840,317.069305 516.492371,320.187042 512.789124,319.975952 
	C509.465210,319.786499 508.287231,316.941772 506.911499,314.451416 
	C502.402222,306.288666 497.877045,298.134583 493.327820,289.994019 
	C492.695007,288.861633 492.249420,287.519287 490.258118,286.829041 
	C483.839813,293.511353 480.418640,301.766541 479.373779,310.997589 
	C478.461548,319.057068 478.394409,319.376434 470.413849,319.377716 
	C448.256317,319.381348 426.098755,319.390106 403.941376,319.325317 
	C401.797577,319.319061 399.112396,320.181488 398.320618,316.756470 
	C397.415894,312.842743 398.844574,310.953339 403.091949,310.794830 
	C410.667877,310.512115 410.673279,310.512146 410.676605,303.032715 
	C410.684113,286.206299 410.788788,269.378845 410.613800,252.554306 
	C410.572510,248.587341 411.930817,246.309433 415.670654,245.130081 
	C418.842102,244.129974 421.862457,242.640778 425.046295,241.692398 
	C429.192902,240.457245 430.790771,237.975861 430.734619,233.607544 
	C430.624237,225.023712 430.839325,225.058685 438.855774,222.061249 
	C443.688751,220.254135 448.431122,218.199631 453.289795,216.468414 
	C455.927704,215.528488 456.450867,214.076019 455.657104,211.526871 
	C454.076324,206.450180 452.353699,201.419800 451.552155,196.110519 
	C445.918213,158.791580 474.697906,124.721611 512.559204,123.972717 
	C542.778870,123.374969 569.898987,146.660950 574.464478,176.600616 
	C576.199158,187.975967 574.998779,198.878967 571.122131,209.468582 
	C569.394775,214.187225 570.733582,216.003464 575.078857,217.360489 
	C579.996033,218.896118 584.651917,221.296219 589.595825,222.710800 
	C594.332703,224.066132 596.155884,226.743332 595.379395,231.453430 
	C595.325806,231.778458 595.411255,232.127045 595.353394,232.450638 
	C594.427490,237.631088 596.675232,240.136719 601.662720,241.851059 
	C615.401855,246.573517 615.338623,246.807404 615.361450,261.550842 
	C615.383362,275.711578 615.355042,289.872345 615.367981,304.033112 
	C615.374084,310.654999 615.395569,310.612976 621.974915,310.764374 
	C624.485779,310.822174 627.637085,309.907166 627.966309,314.076904 
	C628.227356,317.384338 627.518188,319.426453 623.457031,319.406250 
	C599.967407,319.289398 576.476624,319.303955 552.986755,319.396484 
	C548.827454,319.412842 547.338684,317.211548 547.086914,313.593719 
	C546.677979,307.715881 545.272339,302.108185 542.616577,296.433533 
M554.381714,249.796799 
	C552.801514,252.916504 551.299561,256.079102 549.619995,259.144379 
	C547.763489,262.532623 545.207825,261.093018 542.740540,259.946716 
	C539.873108,258.614502 540.607666,256.710785 541.788147,254.613403 
	C547.516907,244.434555 552.303101,233.795059 556.735779,223.012314 
	C561.356201,211.772812 566.513489,200.425629 566.495972,188.110260 
	C566.467041,167.699539 557.906128,151.250183 540.121948,140.629898 
	C521.889282,129.741837 503.010406,129.908569 485.262299,141.283081 
	C466.687347,153.187500 457.156616,170.807617 460.345734,193.082138 
	C463.549438,215.458649 474.562592,235.189240 484.575104,255.124832 
	C486.417969,258.794067 488.815002,257.442749 491.084961,255.733780 
	C507.803650,243.146606 523.349548,229.391815 534.797607,211.580139 
	C540.205566,203.166061 543.908875,194.264160 543.739685,183.987671 
	C543.665649,179.492340 545.590149,175.476089 548.350647,170.735489 
	C552.005981,178.406631 552.772522,185.352524 551.909058,192.557037 
	C550.530212,204.061508 544.698853,213.586792 538.052856,222.617203 
	C524.862122,240.540466 507.902863,254.484909 490.028198,267.437347 
	C478.795349,275.576935 467.849854,284.065765 461.094696,296.635529 
	C458.843445,300.824615 456.848572,305.165039 457.217896,310.064789 
	C459.896240,311.112976 462.265717,310.516418 464.547577,310.803680 
	C468.687714,311.324890 470.408417,309.564636 471.192383,305.467010 
	C471.996735,301.262665 473.581146,297.136444 475.316620,293.192749 
	C487.298981,265.964142 521.326965,253.758362 547.811279,267.175781 
	C563.822144,275.287140 573.602112,288.357483 577.649231,305.737671 
	C578.419983,309.047333 579.461426,311.261139 583.480286,310.766449 
	C587.731934,310.243103 586.645081,307.105011 586.654968,304.681000 
	C586.733765,285.353516 586.699585,266.025604 586.718506,246.697830 
	C586.735046,229.706741 586.728760,229.764633 570.330933,225.017532 
	C567.605774,224.228607 565.920837,224.414658 564.845703,227.294296 
	C563.775757,230.160080 564.294312,232.173676 567.264404,233.285690 
	C569.135315,233.986145 570.984375,234.801086 572.914307,235.275803 
	C577.005615,236.282150 578.382812,238.760300 578.326843,242.920731 
	C578.138611,256.914185 578.284729,270.911865 578.206604,284.907410 
	C578.198547,286.354736 579.074585,288.262207 576.695068,289.393799 
	C573.132874,283.865570 568.784363,279.052826 569.467163,271.516449 
	C570.155823,263.915039 569.480469,256.198883 569.646606,248.538284 
	C569.761475,243.239059 566.198425,241.890259 562.164246,240.772049 
	C557.911621,239.593323 557.834839,243.347549 556.495789,245.562744 
	C555.810669,246.696182 555.325012,247.950180 554.381714,249.796799 
M448.242493,289.186584 
	C447.080231,276.230988 447.838074,263.248199 447.771576,250.279877 
	C447.697174,235.770721 446.022247,237.546936 458.948822,233.307129 
	C461.864075,232.350952 462.947205,230.799301 461.706116,227.690262 
	C460.546753,224.786011 458.949646,223.804535 455.944489,225.025253 
	C452.399780,226.465134 448.805908,227.812149 445.159698,228.966721 
	C440.848022,230.332001 439.239136,233.134995 439.260437,237.590515 
	C439.369507,260.421600 439.304077,283.253479 439.310638,306.085083 
	C439.311249,308.256561 439.034698,310.593811 442.314514,310.748138 
	C445.154572,310.881775 447.374573,310.827911 448.082642,307.065643 
	C449.544769,299.296967 452.670380,292.158081 457.335693,285.685486 
	C462.364471,278.708588 468.582703,272.959717 475.368439,267.808136 
	C478.441406,265.475220 479.032959,263.230621 477.034760,259.789581 
	C474.279022,255.044098 471.978699,250.032684 469.516907,245.118347 
	C466.884888,239.864182 462.216766,239.216400 458.265137,243.615967 
	C456.717285,245.339294 456.440369,247.504364 456.448090,249.697601 
	C456.473236,256.850830 455.898621,264.083038 456.765198,271.136108 
	C457.745575,279.115875 453.800568,284.329895 448.242493,289.186584 
M499.522308,282.256622 
	C504.026733,289.929260 507.544037,298.189789 513.367126,306.414276 
	C516.936340,299.957458 519.991150,294.310608 523.159729,288.728302 
	C527.650330,280.816833 527.686157,280.837158 521.653687,275.144775 
	C527.005005,272.906982 537.719055,275.761414 542.585632,280.625305 
	C549.719116,287.754791 552.799011,296.860260 555.179993,306.297791 
	C555.673401,308.253784 555.675232,310.551483 558.362305,310.635010 
	C561.935486,310.746033 565.602600,311.366608 569.080688,309.822601 
	C569.040405,303.639893 566.362000,298.625702 563.625061,293.682129 
	C551.650757,272.054016 524.077942,264.112885 502.697174,276.136230 
	C500.677094,277.272186 497.665588,278.087769 499.522308,282.256622 
M595.369995,275.499939 
	C595.363220,285.490814 595.570984,295.488434 595.257385,305.469666 
	C595.104919,310.324249 597.514160,310.734283 601.376343,310.863922 
	C605.600464,311.005707 606.819763,309.439514 606.766296,305.369598 
	C606.580200,291.218292 606.699280,277.062958 606.698914,262.909180 
	C606.698792,260.578033 606.785278,258.240753 606.646729,255.917297 
	C606.465027,252.870285 602.198608,249.627045 598.219360,249.815063 
	C594.285583,250.000931 595.483093,253.324417 595.427307,255.518768 
	C595.266602,261.842224 595.370422,268.172394 595.369995,275.499939 
M428.657715,310.360840 
	C430.919434,308.293915 430.517914,305.480988 430.533661,302.907959 
	C430.628143,287.458466 430.625122,272.008148 430.588501,256.558289 
	C430.583191,254.319626 431.154175,251.355087 428.336121,250.572922 
	C425.511078,249.788864 422.736542,251.203674 420.614471,253.136505 
	C419.031708,254.578079 419.357605,256.830658 419.355164,258.811401 
	C419.335938,274.427582 419.442902,290.044861 419.267731,305.659119 
	C419.224182,309.541962 420.439087,311.284760 424.385345,310.806274 
	C425.536041,310.666779 426.704346,310.672791 428.657715,310.360840 
z"/>
<path fill="#000000" opacity="1.000000" stroke="none" 
	d="
M687.192627,393.660767 
	C684.838074,397.620911 681.457397,396.363068 678.609558,395.619110 
	C675.854797,394.899536 676.802551,392.018646 676.780518,389.992828 
	C676.686218,381.332947 676.709717,372.671509 676.730713,364.010773 
	C676.745972,357.729309 679.340027,355.904114 686.060913,358.103149 
	C688.208008,358.805634 689.772034,358.715057 691.673279,357.906616 
	C696.641663,355.793915 701.513123,356.289307 705.966980,359.210907 
	C708.241516,360.702942 709.915588,360.569031 712.297668,359.273804 
	C725.051819,352.338806 736.937378,359.311127 737.230286,373.789612 
	C737.344788,379.450073 737.050415,385.123260 737.298279,390.775085 
	C737.485229,395.037170 735.601196,396.213135 731.648804,396.253693 
	C727.547607,396.295807 725.942017,394.753632 726.066895,390.682648 
	C726.230103,385.359558 726.072021,380.025269 725.995178,374.696625 
	C725.934753,370.508392 724.767822,366.946564 719.877136,366.472504 
	C716.117554,366.108093 712.521423,370.061218 712.332764,374.852692 
	C712.116760,380.340881 712.066101,385.850037 712.284058,391.336548 
	C712.473389,396.102203 709.573547,396.122742 706.127258,396.230194 
	C702.272766,396.350372 701.318115,394.679199 701.514038,391.082123 
	C701.803406,385.768707 701.714050,380.422546 701.533020,375.098938 
	C701.342285,369.490448 699.018005,366.485748 695.227173,366.398712 
	C691.214966,366.306641 687.653320,370.069977 687.426392,375.215210 
	C687.162415,381.200714 687.295959,387.203705 687.192627,393.660767 
z"/>
<path fill="#000000" opacity="1.000000" stroke="none" 
	d="
M545.065735,382.135223 
	C549.354858,376.769318 551.808716,381.145905 554.449768,383.501740 
	C557.867310,386.550293 554.454956,388.218689 552.750427,389.815155 
	C543.106323,398.848114 525.319397,398.962524 515.554138,390.195343 
	C505.365753,381.048279 504.071411,365.066711 512.619202,353.956940 
	C520.865112,343.239532 537.238953,340.572205 549.168640,348.002991 
	C556.795288,352.753510 556.626770,356.049072 548.346008,360.985199 
	C544.473022,358.067200 540.927551,354.403107 535.460938,354.250000 
	C527.882996,354.037842 522.172485,357.570801 519.398254,364.487762 
	C516.894165,370.730896 518.744202,378.319244 523.833069,382.678680 
	C529.477722,387.514221 536.050781,387.928223 542.787354,383.847748 
	C543.496155,383.418427 544.132019,382.868713 545.065735,382.135223 
z"/>
<path fill="#000000" opacity="1.000000" stroke="none" 
	d="
M567.718018,396.097595 
	C560.146362,396.117676 560.075745,396.076630 560.062744,388.897400 
	C560.038269,375.423523 560.123169,361.948944 560.003296,348.476105 
	C559.970154,344.746521 560.642334,342.616180 565.155701,342.628113 
	C569.513000,342.639618 571.132202,344.146851 571.021851,348.423035 
	C570.934387,351.817017 570.344360,355.337280 571.798340,358.838531 
	C572.632996,358.702850 573.291199,358.681061 573.892944,358.485535 
	C587.752258,353.983612 595.671509,358.957092 596.849976,373.332672 
	C597.351257,379.447235 596.943909,385.633728 597.019470,391.786652 
	C597.069397,395.858215 594.445496,396.137726 591.335388,396.170471 
	C588.022095,396.205292 585.836365,395.350800 585.883789,391.483612 
	C585.951111,385.995697 585.937927,380.503357 585.793518,375.017242 
	C585.645447,369.393066 583.118042,366.337189 578.927612,366.380432 
	C574.642944,366.424652 571.247131,369.966064 571.053406,375.050903 
	C570.850830,380.366516 571.014282,385.695374 570.967407,391.018005 
	C570.948425,393.172485 571.142761,395.519867 567.718018,396.097595 
z"/>
<path fill="#000000" opacity="1.000000" stroke="none" 
	d="
M639.825684,357.779938 
	C642.869629,358.811493 642.198486,361.091461 642.213135,362.958008 
	C642.282043,371.765839 642.248718,380.574524 642.237244,389.382904 
	C642.228821,395.796783 640.237793,397.670349 634.126953,395.775146 
	C631.019104,394.811218 628.567627,395.095947 625.624512,395.932068 
	C617.718445,398.178009 608.948181,394.985107 604.812805,388.773621 
	C600.063843,381.640717 600.421631,370.714783 605.627258,363.897858 
	C610.346069,357.718414 618.890808,354.976410 626.669922,357.784760 
	C631.081299,359.377350 635.147827,356.553314 639.825684,357.779938 
M625.453308,386.294098 
	C626.677979,385.444031 628.144897,384.801483 629.082886,383.705994 
	C632.232239,380.027924 632.637573,375.826965 630.304932,371.641663 
	C628.183472,367.835114 624.777893,365.715363 620.326965,366.670685 
	C615.852844,367.630981 613.014771,370.601074 612.383362,375.226440 
	C611.609680,380.894653 615.460083,388.636078 625.453308,386.294098 
z"/>
<path fill="#000000" opacity="1.000000" stroke="none" 
	d="
M298.486206,344.874939 
	C302.003723,345.539673 302.235260,348.387604 303.119568,350.582794 
	C306.100525,357.982910 308.876343,365.465485 311.821167,372.880554 
	C312.477264,374.532715 312.874176,376.397034 314.431763,377.617767 
	C316.329468,376.936584 316.521149,375.139130 317.108459,373.663269 
	C319.874634,366.712189 322.608612,359.748169 325.324707,352.777313 
	C328.831421,343.777435 329.099304,343.619843 338.944611,345.375458 
	C340.110718,347.077301 338.934204,348.547241 338.332977,349.999512 
	C332.610107,363.823334 326.775818,377.601440 321.128784,391.455963 
	C319.839813,394.618378 318.133148,396.226135 314.491913,396.133331 
	C311.011963,396.044708 309.076416,394.810699 307.769501,391.526398 
	C302.421539,378.087463 296.834473,364.743835 291.375000,351.348969 
	C290.699097,349.690643 289.736969,348.065033 290.073425,345.807953 
	C292.458038,344.023743 295.362732,345.083252 298.486206,344.874939 
z"/>
<path fill="#000000" opacity="1.000000" stroke="none" 
	d="
M491.612732,396.018982 
	C486.232880,396.950653 481.298798,397.006897 476.479279,395.216095 
	C468.920929,392.407623 463.725067,384.633911 463.994324,376.540039 
	C464.297363,367.432129 469.903625,359.993195 478.283936,357.579254 
	C487.004425,355.067352 495.738922,357.942535 500.475433,364.730255 
	C503.218781,368.661621 503.567047,373.030518 503.370941,377.588593 
	C503.238464,380.667847 501.078094,380.879456 498.825958,380.898346 
	C493.174744,380.945801 487.522858,380.911499 481.871460,380.946045 
	C480.066711,380.957092 478.211121,380.657288 476.253448,381.690796 
	C476.882263,385.995728 480.334778,386.945526 483.688873,387.540680 
	C487.545685,388.224976 491.335968,387.494843 494.674835,385.295807 
	C498.232544,382.952637 499.283173,385.986450 500.796478,388.035492 
	C502.734863,390.660065 500.934326,392.037109 498.888763,393.053864 
	C496.670502,394.156464 494.309906,394.972839 491.612732,396.018982 
M479.315826,372.681915 
	C483.488800,372.390045 487.766815,373.428650 492.033203,371.970856 
	C491.557373,367.585205 488.553986,366.120728 485.233704,365.690338 
	C481.816498,365.247437 478.660919,366.558716 476.641327,369.538483 
	C475.253021,371.586823 476.381561,372.541565 479.315826,372.681915 
z"/>
<path fill="#000000" opacity="1.000000" stroke="none" 
	d="
M358.685608,356.798767 
	C370.342377,359.421448 375.444092,365.425385 375.484863,375.534821 
	C375.500336,379.374939 374.100739,380.988312 370.279114,380.909363 
	C364.797089,380.796143 359.310303,380.874847 353.826080,380.927094 
	C352.030121,380.944214 350.167480,380.592499 348.220734,381.699188 
	C348.947021,385.927094 352.347504,386.911133 355.717010,387.522766 
	C359.212616,388.157349 362.844055,387.796936 365.807404,385.742065 
	C369.495087,383.184937 371.136261,385.261230 372.814392,388.099152 
	C374.918945,391.658081 371.799927,392.435089 369.814178,393.563049 
	C355.303711,401.805359 338.386230,394.413696 336.403229,379.030701 
	C334.755737,366.250549 344.143402,356.681122 358.685608,356.798767 
M361.835724,367.480591 
	C354.831451,363.976135 349.320923,365.890930 348.301971,372.291626 
	C353.470306,372.291626 358.612640,372.291626 363.616760,372.291626 
	C364.391968,370.162933 363.269287,369.092194 361.835724,367.480591 
z"/>
<path fill="#000000" opacity="1.000000" stroke="none" 
	d="
M415.498413,395.613831 
	C406.793671,396.503265 406.676147,396.394287 406.670441,388.137299 
	C406.667328,383.642853 406.781921,379.143677 406.613831,374.655212 
	C406.412872,369.288971 403.723999,366.362976 399.295074,366.313538 
	C394.880219,366.264252 391.492828,369.680084 391.314240,374.764496 
	C391.127319,380.085052 391.087921,385.422424 391.287872,390.741058 
	C391.432312,394.582214 390.031677,396.186127 386.100708,396.083740 
	C382.468414,395.989197 380.594696,394.943298 380.684723,390.871460 
	C380.883392,381.887115 380.711914,372.894928 380.724457,363.906006 
	C380.732788,357.929016 384.804871,355.259247 390.016022,358.392761 
	C392.084381,359.636536 393.132965,359.232483 394.801361,358.497833 
	C405.726135,353.687286 415.318298,358.562897 416.790741,370.429993 
	C417.726196,377.969177 417.097809,385.706482 417.068298,393.354523 
	C417.065643,394.049591 416.314240,394.741730 415.498413,395.613831 
z"/>
<path fill="#000000" opacity="1.000000" stroke="none" 
	d="
M459.288300,377.856323 
	C458.910370,393.130981 446.827515,400.965607 433.055542,395.259308 
	C427.784790,393.075409 424.502747,389.218597 423.571045,383.402771 
	C422.402985,376.111572 423.227905,368.803864 423.094208,361.505524 
	C423.021362,357.526978 425.755219,357.676971 428.550598,357.643341 
	C431.435730,357.608643 433.968079,357.714478 433.970917,361.599060 
	C433.975159,367.416077 433.961609,373.236633 434.155914,379.048981 
	C434.338531,384.511292 436.473846,386.754669 441.127258,386.835999 
	C445.816315,386.917999 448.503235,384.247650 448.665497,378.909027 
	C448.837097,373.262329 448.855042,367.603149 448.690277,361.956726 
	C448.580109,358.181702 450.618652,357.593170 453.714996,357.643860 
	C456.753021,357.693634 459.433990,357.652649 459.302734,361.920227 
	C459.144409,367.068054 459.280396,372.224884 459.288300,377.856323 
z"/>
<path fill="#000000" opacity="1.000000" stroke="none" 
	d="
M653.985840,396.128479 
	C650.103455,396.394318 648.794617,394.786560 648.835388,391.384033 
	C648.947144,382.052612 648.834473,372.718689 648.863098,363.385956 
	C648.880432,357.749908 650.593567,356.083344 656.842896,357.975555 
	C660.333984,359.032623 662.735596,358.140350 665.671204,357.233307 
	C671.622070,355.394623 673.762146,357.271820 673.315796,363.336182 
	C673.121277,365.979492 672.187683,367.037079 669.371887,367.197571 
	C663.052246,367.557709 660.455994,370.280762 660.120056,376.586670 
	C659.872070,381.241943 659.780151,385.921722 659.951721,390.578308 
	C660.101196,394.633942 658.576233,396.565002 653.985840,396.128479 
z"/>
<path fill="#000000" opacity="1.000000" stroke="none" 
	d="
M485.351410,218.573914 
	C479.664185,210.221191 475.023987,201.774017 474.183533,191.840271 
	C472.924591,176.959122 478.061462,164.653809 489.995575,155.598724 
	C501.701721,146.716614 514.610657,145.454651 528.221863,150.745895 
	C529.425415,151.213760 530.772339,151.632904 531.354248,153.458847 
	C528.191650,157.412064 524.117920,158.157639 519.163513,157.166412 
	C503.168793,153.966278 487.432709,163.979843 483.795380,179.732254 
	C482.027161,187.389893 482.861877,194.882401 486.197632,202.130737 
	C491.067871,212.713409 498.390625,221.522827 505.890717,230.237839 
	C507.592255,232.214996 510.697693,233.752213 507.091553,237.048187 
	C503.718903,240.130722 501.600220,238.730484 499.256165,236.022675 
	C494.462677,230.485352 489.665741,224.954742 485.351410,218.573914 
z"/>
<path fill="#000000" opacity="1.000000" stroke="none" 
	d="
M505.508972,194.462036 
	C500.916351,190.484375 495.378998,189.861908 489.953217,188.093246 
	C495.281982,185.787491 501.342743,185.320572 505.678589,181.089447 
	C510.214539,176.663055 511.266479,170.769852 512.913940,164.705978 
	C514.982239,170.226151 515.727234,176.144104 519.924011,180.549835 
	C524.348938,185.195084 530.413940,185.796356 536.249329,187.802704 
	C530.932007,190.232193 524.789307,190.575027 520.294678,194.623108 
	C515.589600,198.860764 515.643005,205.251572 512.868103,211.978683 
	C510.488556,205.267044 510.472229,198.903168 505.508972,194.462036 
z"/>
<path fill="#000000" opacity="1.000000" stroke="none" 
	d="
M533.358521,165.578796 
	C530.947510,164.480423 528.845764,163.572922 526.744080,162.665421 
	C526.437378,162.278793 526.130737,161.892181 525.824036,161.505569 
	C534.340820,160.651703 538.620789,155.782974 540.447510,147.825195 
	C542.658630,155.123871 546.578247,160.412125 554.908691,162.143890 
	C546.346069,164.106705 542.607605,169.696426 540.935974,178.711517 
	C538.302185,173.298584 538.027710,168.241684 533.358521,165.578796 
z"/>
</svg>