<svg version="1.1" id="Layer_1" xmlns="http://www.w3.org/2000/svg" xmlns:xlink="http://www.w3.org/1999/xlink" x="0px" y="0px"
	 width="100%" viewBox="0 0 640 640" enable-background="new 0 0 640 640" xml:space="preserve">
<path fill="#000000" opacity="1.000000" stroke="none" 
	d="
M363.534241,503.475708 
	C354.010742,520.709045 344.511200,537.537964 335.404968,554.577087 
	C331.960968,561.021301 327.623169,564.182922 319.959198,563.588379 
	C315.448730,563.238525 312.789368,561.432556 310.801605,557.968262 
	C305.082123,548.000366 299.440369,537.987366 293.834137,527.955139 
	C285.708862,513.415100 277.668915,498.827332 269.523926,484.298340 
	C268.072327,481.708984 266.287628,479.306335 264.721771,476.916748 
	C261.955353,477.117584 261.228821,479.270050 260.029877,480.709045 
	C243.004471,501.143066 234.439423,524.853455 233.112106,551.261414 
	C232.686478,559.729187 229.670364,563.064941 221.129440,563.068115 
	C157.800537,563.091797 94.471565,563.026917 31.142794,563.116882 
	C26.757986,563.123108 24.920521,561.706604 25.587833,557.326294 
	C25.712029,556.510986 25.619234,555.662415 25.622873,554.829163 
	C25.675283,542.833374 25.675133,542.833069 37.435886,542.821167 
	C41.602268,542.816895 45.768661,542.820007 49.935028,542.810120 
	C56.908943,542.793579 56.921482,542.790344 56.924473,535.998047 
	C56.940041,500.667175 56.949814,465.336334 56.959198,430.005463 
	C56.963181,415.006561 57.097549,400.005798 56.890823,385.009766 
	C56.814827,379.497040 59.083076,376.470398 64.189194,374.591644 
	C77.314362,369.762451 90.279915,364.500702 103.382744,359.608673 
	C107.153198,358.200989 108.938744,356.261566 108.775421,351.941254 
	C108.448318,343.288330 108.808777,334.611694 108.687553,325.947662 
	C108.631027,321.907104 110.231247,319.517242 114.025337,317.971680 
	C133.004883,310.239960 152.450439,303.790741 171.734573,296.905212 
	C175.931503,295.406677 177.081345,293.964874 175.369141,289.420776 
	C167.413086,268.305695 161.211487,246.688446 160.873718,223.916061 
	C160.263199,182.753952 173.388535,146.484039 200.164459,115.103813 
	C228.068924,82.401009 263.219116,63.056847 305.993286,59.053608 
	C355.235565,54.445019 397.881195,70.021294 433.684784,104.118179 
	C460.346039,129.508545 476.117249,160.733490 481.683838,196.927933 
	C485.300201,220.441666 483.185608,243.769440 476.137482,266.558777 
	C473.727448,274.351440 471.360779,282.170319 468.545135,289.819214 
	C467.172913,293.546936 468.018005,295.092957 471.646912,296.410461 
	C490.740875,303.342590 510.014191,309.782410 528.851562,317.431274 
	C533.782288,319.433350 535.777893,322.269165 535.559631,327.593597 
	C535.212036,336.073608 535.682678,344.585724 535.399170,353.070618 
	C535.286072,356.456451 536.688965,357.712708 539.541626,358.790924 
	C553.091492,363.912628 566.541077,369.299591 580.092224,374.417877 
	C585.508728,376.463654 587.468628,379.822876 587.439941,385.793091 
	C587.198425,436.121582 587.343994,486.451813 587.205444,536.781067 
	C587.193115,541.243408 588.279419,543.087769 593.044189,542.846558 
	C600.025330,542.493408 607.041077,542.889221 614.036743,542.730591 
	C617.811646,542.645020 619.753967,543.876465 619.299438,547.912598 
	C619.132446,549.395447 619.245789,550.909485 619.224731,552.409241 
	C619.073547,563.180908 621.072449,563.062073 608.286804,563.065063 
	C547.291016,563.079346 486.295258,563.114014 425.299469,563.134338 
	C414.554108,563.137878 412.761475,560.582642 411.615143,550.008911 
	C408.860779,524.603333 401.465881,500.798096 384.407715,480.950043 
	C380.248901,476.110931 378.872894,476.304230 375.705322,481.805939 
	C371.633118,488.878876 367.704895,496.034760 363.534241,503.475708 
M259.308502,404.746979 
	C277.035126,392.247742 293.673798,378.399261 309.931580,364.067841 
	C338.715149,338.694824 364.709625,310.960846 383.782104,277.326630 
	C395.458527,256.735291 404.290680,235.406906 401.149811,210.925934 
	C401.010651,209.841324 401.412659,208.611450 401.816101,207.545166 
	C404.879944,199.447098 407.984100,191.363968 411.140594,183.301605 
	C411.586578,182.162491 411.753357,180.568237 413.604218,180.631424 
	C413.875671,180.824402 414.255768,180.955200 414.389465,181.213501 
	C414.998138,182.389786 415.610199,183.573563 416.091187,184.805328 
	C427.493134,214.003937 425.013733,242.624451 411.929688,270.549683 
	C398.218201,299.814026 378.837799,325.192749 356.824554,348.627991 
	C329.212128,378.024078 297.873871,403.052246 265.158783,426.466614 
	C247.410385,439.169159 229.786499,452.033386 214.192474,467.452881 
	C194.874512,486.554626 181.371994,508.857727 175.789368,535.652405 
	C175.328796,537.862976 174.389267,540.098938 175.763474,542.786865 
	C186.319977,542.786865 196.959839,542.768616 207.599579,542.799194 
	C210.401749,542.807251 211.383163,541.145142 211.631577,538.719360 
	C212.280380,532.383789 214.199768,526.327271 215.866791,520.236511 
	C223.735855,491.485687 238.287292,466.753998 261.671295,447.995087 
	C290.698792,424.708832 323.757965,413.309784 361.352203,415.552124 
	C397.037811,417.680603 426.131989,433.615356 451.024811,457.912994 
	C471.079376,477.488068 482.947449,501.941315 490.013855,528.899841 
	C491.200806,533.427979 489.994446,539.870056 494.226868,542.032471 
	C498.095978,544.009277 503.679810,542.481506 508.485565,542.818237 
	C512.722717,543.115112 513.877014,541.322083 513.843079,537.286072 
	C513.680542,517.954529 513.760315,498.620972 513.763489,479.288116 
	C513.771179,432.789215 513.771240,386.290283 513.823425,339.791412 
	C513.826965,336.628174 513.689941,334.069244 509.989594,332.679718 
	C494.710175,326.942139 479.459442,321.138336 463.978394,315.950958 
	C461.111786,314.990448 459.539917,315.765045 458.488525,318.371094 
	C456.618866,323.005463 454.978668,327.754852 452.773041,332.224487 
	C450.804443,336.213776 452.164062,337.660553 455.969330,338.990845 
	C465.714111,342.397369 475.292847,346.275696 484.983551,349.841553 
	C489.311676,351.434143 491.202515,354.271698 491.189514,358.925140 
	C491.073792,400.423615 491.073090,441.922363 491.000641,483.421021 
	C490.997620,485.144928 491.507690,487.150330 489.567444,488.296234 
	C487.967590,488.389038 487.542389,487.156342 487.016479,486.172943 
	C482.217896,477.199951 477.265045,468.327789 470.594849,460.558228 
	C469.517365,459.303131 469.496704,457.865906 469.522186,456.333435 
	C469.840485,437.193634 468.718140,418.060577 469.500244,398.908508 
	C469.880035,389.607117 469.171448,380.265503 469.160309,370.941833 
	C469.156250,367.543762 467.643616,365.836639 464.591522,364.746765 
	C458.946564,362.731079 453.305725,360.657837 447.826324,358.239014 
	C443.434753,356.300385 441.215271,357.170929 439.077271,361.748718 
	C431.535980,377.895874 423.496674,393.811035 415.586731,409.784729 
	C414.606415,411.764465 413.870789,414.668854 410.682831,413.537903 
	C404.771851,411.440948 398.959625,409.065613 393.155579,406.825226 
	C393.263916,405.951660 393.211121,405.411346 393.406006,404.983978 
	C394.027222,403.621582 394.750671,402.306213 395.416809,400.963837 
	C415.338715,360.816010 435.196014,320.630951 449.415009,277.989777 
	C455.369232,260.133789 461.340759,242.128815 461.609131,223.106293 
	C461.978607,196.919556 455.300323,172.349915 442.170227,149.641296 
	C412.129486,97.685593 351.254974,68.928452 293.626953,81.809044 
	C243.448502,93.024567 209.541855,124.420792 191.352295,172.594528 
	C185.289246,188.652100 182.070541,205.266037 182.515259,222.438919 
	C183.074829,244.046982 189.555878,264.422394 196.694275,284.518158 
	C210.381653,323.050293 227.898666,359.914673 246.579117,396.233521 
	C248.676666,400.311615 250.369476,404.698334 253.362061,408.177734 
	C255.784866,407.892120 257.043701,406.150085 259.308502,404.746979 
M152.954987,374.500305 
	C152.953247,369.335724 153.088974,364.166382 152.910172,359.007935 
	C152.739319,354.078979 155.062866,351.298523 159.576263,349.744812 
	C166.029678,347.523193 172.447754,345.182159 178.795563,342.675934 
	C183.678986,340.747864 188.857468,339.452850 193.706329,336.627106 
	C191.197357,330.374451 188.701675,324.576874 186.558243,318.651855 
	C185.310333,315.202393 183.617386,314.576019 180.195206,315.861542 
	C165.234894,321.481506 150.215714,326.950562 135.142059,332.259003 
	C131.389343,333.580597 130.124985,335.607758 130.132126,339.593811 
	C130.250122,405.402893 130.249146,471.212311 130.148361,537.021423 
	C130.141953,541.213257 131.126282,543.273193 135.708145,542.863831 
	C139.178558,542.553711 142.723465,542.562256 146.192841,542.884644 
	C150.630661,543.297119 152.207275,541.377563 153.070786,537.154663 
	C160.342133,501.594666 177.007767,471.417419 204.710205,447.551117 
	C213.547272,439.937805 222.504013,432.489990 231.722610,425.353363 
	C233.851517,423.705261 235.421143,422.262054 233.852448,419.171265 
	C223.829605,399.423096 213.904068,379.625305 204.038345,359.798126 
	C202.746124,357.201172 201.170547,356.450165 198.490341,357.499908 
	C192.447418,359.866608 186.440399,362.364044 180.275085,364.365662 
	C176.043533,365.739471 174.863022,368.163910 174.893768,372.479095 
	C175.088394,399.801025 175.007629,427.124908 175.021469,454.448151 
	C175.022827,457.126373 174.913849,459.643585 173.014954,461.943787 
	C167.272675,468.899475 162.598923,476.590332 158.052780,484.363464 
	C157.137222,485.928925 156.737091,488.298889 152.957870,488.118958 
	C152.957870,450.564789 152.957870,413.032501 152.954987,374.500305 
M308.922211,509.624939 
	C313.276794,516.788269 316.640259,524.568481 321.946228,531.615601 
	C322.906555,530.514771 323.561676,529.978516 323.946960,529.291016 
	C336.080414,507.641083 348.172791,485.968109 360.319641,464.325684 
	C361.680176,461.901550 361.060120,460.384949 358.819275,458.974091 
	C354.289307,456.122040 349.555481,453.717987 344.589874,451.726196 
	C343.233521,451.182129 341.072266,451.580322 340.906006,448.902679 
	C345.392456,447.223999 350.083954,447.709900 354.648315,447.809814 
	C376.634094,448.291138 394.607361,456.469543 407.507660,474.982666 
	C420.806854,494.068268 428.954407,515.160828 433.021301,537.889038 
	C433.711273,541.744873 435.103638,542.909607 438.763275,542.839294 
	C447.425964,542.672913 456.094177,542.812561 464.759857,542.766479 
	C466.195770,542.758850 467.790405,543.150146 469.352203,541.462952 
	C467.504639,527.946350 463.099670,514.934387 456.610382,502.666168 
	C440.448395,472.111298 416.200989,450.874115 383.040680,440.532440 
	C367.420410,435.660980 351.274048,434.832733 335.101715,437.429749 
	C316.970947,440.341309 299.951141,446.244232 284.892029,457.134491 
	C282.078552,459.169098 281.492401,460.882874 283.348114,464.112335 
	C291.896027,478.987946 300.168976,494.021576 308.922211,509.624939 
M108.720360,528.490845 
	C108.720360,479.296234 108.720360,430.101624 108.720360,381.163300 
	C106.111244,380.215790 104.643532,381.220825 103.141693,381.793365 
	C96.923141,384.164185 90.826462,386.905823 84.495018,388.911469 
	C80.210930,390.268585 79.008537,392.586090 79.026337,396.900269 
	C79.170616,431.862946 79.095207,466.826569 79.087616,501.789886 
	C79.085152,513.111328 79.078476,524.432739 79.086479,535.754150 
	C79.091438,542.764404 79.102211,542.768799 86.329170,542.806641 
	C89.325958,542.822327 92.322853,542.817078 95.319702,542.817078 
	C108.718254,542.817017 108.718254,542.816467 108.720360,528.490845 
M564.284729,541.665771 
	C565.255005,539.785889 564.923889,537.751221 564.930542,535.774048 
	C564.970642,523.946472 564.982422,512.118713 564.978760,500.291016 
	C564.968018,465.640869 564.939270,430.990692 564.938904,396.340546 
	C564.938843,393.427673 564.982239,390.752655 561.439880,389.493225 
	C554.383179,386.984314 547.414795,384.225616 540.421509,381.540070 
	C536.913696,380.193024 535.333862,381.579559 535.412170,385.103760 
	C535.486084,388.429504 535.895752,391.751038 535.898987,395.074677 
	C535.928589,425.553375 535.955261,456.032318 535.870667,486.510864 
	C535.823059,503.659241 535.556580,520.806946 535.411499,537.955078 
	C535.393616,540.066040 534.886475,542.696411 538.237183,542.668945 
	C546.708679,542.599487 555.196899,543.409058 564.284729,541.665771 
z"/>
<path fill="#000000" opacity="1.000000" stroke="none" 
	d="
M346.678101,144.363251 
	C296.719971,128.234451 251.160248,161.499939 244.077881,209.006104 
	C240.591660,232.390656 247.102310,253.440689 258.160248,273.600861 
	C270.996399,297.002930 288.146545,317.155853 305.664062,337.044159 
	C307.735229,339.395660 310.142426,341.496368 311.869110,345.104919 
	C307.353424,348.809998 302.794342,352.614319 298.156677,356.320312 
	C296.601746,357.562897 295.391083,356.489105 294.293152,355.344940 
	C267.400787,327.319519 242.024261,297.885590 228.379242,260.990784 
	C209.771805,210.678101 227.936646,152.539078 279.962250,128.068741 
	C308.303162,114.738564 337.057770,115.672363 365.350586,129.117157 
	C367.260345,130.024673 369.407074,130.696838 371.022675,133.092377 
	C365.855865,137.287903 359.649292,139.658966 353.972229,142.890289 
	C351.833130,144.107803 349.798889,145.854446 346.678101,144.363251 
z"/>
<path fill="#000000" opacity="1.000000" stroke="none" 
	d="
M287.840637,230.156097 
	C278.710785,226.577408 269.541138,224.657990 260.103882,222.990555 
	C275.534149,219.106415 291.779541,217.658386 303.795197,205.889023 
	C315.945312,193.987946 318.234131,177.917038 321.043457,162.243103 
	C323.478943,162.267502 323.118317,163.928894 323.290344,165.094635 
	C324.411255,172.691650 326.249786,180.097733 328.729187,187.371490 
	C334.751862,205.040161 347.790924,214.483292 365.288788,218.627060 
	C371.394165,220.072876 377.605988,221.069138 384.027649,222.321075 
	C382.972870,224.647598 380.967896,224.035370 379.341522,224.253403 
	C364.936737,226.184433 351.173309,229.836594 340.328644,240.257874 
	C331.128998,249.098389 328.002350,260.887024 325.241150,272.823761 
	C324.213715,277.265503 324.541504,282.022827 322.230927,286.734894 
	C319.973724,284.508636 320.266541,281.903015 319.897552,279.640930 
	C318.555206,271.411560 316.813629,263.315002 313.730042,255.521698 
	C308.907379,243.333267 300.162506,235.206390 287.840637,230.156097 
z"/>
<path fill="#000000" opacity="1.000000" stroke="none" 
	d="
M409.168945,165.117722 
	C398.381592,172.984543 396.641815,185.133316 392.746307,196.979156 
	C389.802368,173.852356 377.842102,159.739319 353.825165,156.046204 
	C377.714752,153.150589 389.645386,139.488266 391.878448,116.883560 
	C394.820587,117.717232 394.744293,119.639542 395.022034,121.137520 
	C398.584686,140.350586 409.407440,152.133820 429.225372,154.825500 
	C430.184998,154.955841 431.246368,155.035034 431.970551,156.755508 
	C424.062347,158.481216 416.311523,160.546768 409.168945,165.117722 
z"/>
</svg>